<svg fill="none" height="32" viewBox="0 0 32 32" width="32" xmlns="http://www.w3.org/2000/svg"><path d="m8.99121 5.24609c0 1.933-1.567 3.5-3.5 3.5s-3.5-1.567-3.5-3.5c0-1.93299 1.567-3.5 3.5-3.5s3.5 1.56701 3.5 3.5z" fill="#53fdca"/><path d="m30.2991 26.5413c0 1.933-1.567 3.5-3.5 3.5s-3.5-1.567-3.5-3.5 1.567-3.5 3.5-3.5 3.5 1.567 3.5 3.5z" fill="#53fdca"/><path d="m9 5.125c0-2.00203-1.67893-3.625-3.75-3.625s-3.75 1.62297-3.75 3.625 1.67893 3.625 3.75 3.625c1.57377 0 2.92111-.93714 3.47741-2.26562.17579-.41979.27259-.87866.27259-1.35938zm0 0h3.75c.5178 0 .9375-.40574.9375-.90625s.4197-.90625.9375-.90625h4.6875c.5178 0 .9375.40574.9375.90625s.4197.90625.9375.90625h1.8125m-3.6875 10.875c0-2.002-1.6789-3.625-3.75-3.625-1.388 0-2.5999.729-3.2483 1.8125-.3191.5332-.5017 1.1522-.5017 1.8125m7.5 0c0 1.0827-.491 2.0545-1.2695 2.7188-.6611.564-1.5295.9062-2.4805.9062-2.0711 0-3.75-1.623-3.75-3.625m7.5 0h1.6406c.6472 0 1.1719-.5072 1.1719-1.1328s.5247-1.1328 1.1719-1.1328h1.4531c1.1046 0 2-.8656 2-1.9334v-3.051m-14.9375 7.25h-4.5625c-1.10457 0-2 .8656-2 1.9333v3.5042m3.75 3.625c0 2.002-1.67893 3.625-3.75 3.625s-3.75-1.623-3.75-3.625 1.67893-3.625 3.75-3.625m3.75 3.625c0-2.002-1.67893-3.625-3.75-3.625m3.75 3.625h6.3281c.6472 0 1.1719.5072 1.1719 1.1328s.5247 1.1328 1.1719 1.1328h5.3281m0-22.2031c0 2.00203 1.6789 3.625 3.75 3.625m-3.75-3.625c0-2.00203 1.6789-3.625 3.75-3.625s3.75 1.62297 3.75 3.625c0 .48072-.0968.93959-.2726 1.35938-.5563 1.32848-1.9036 2.26562-3.4774 2.26562m3.75 18.125c0 2.002-1.6789 3.625-3.75 3.625s-3.75-1.623-3.75-3.625c0-1.3418.7541-2.5133 1.875-3.14.5516-.3085 1.192-.485 1.875-.485 2.0711 0 3.75 1.623 3.75 3.625z" stroke="#444"/></svg>