<svg width="1000" height="667" viewBox="0 0 1000 667" fill="none" xmlns="http://www.w3.org/2000/svg">
<g clip-path="url(#clip0_623_27879)">
<path d="M0 666.667H1000V-0.000123024H0V666.667Z" fill="#1F1F1F"/>
<path d="M776.072 402.683C776.072 482.101 711.691 546.483 632.272 546.483C552.855 546.483 488.475 482.101 488.475 402.683C488.475 323.266 552.855 258.885 632.272 258.885C711.691 258.885 776.072 323.266 776.072 402.683Z" fill="#121212"/>
<path d="M321.819 533.984C321.819 573.215 290.015 605.018 250.785 605.018C211.555 605.018 179.752 573.215 179.752 533.984C179.752 494.754 211.555 462.952 250.785 462.952C290.015 462.952 321.819 494.754 321.819 533.984Z" fill="#121212"/>
<path d="M848.827 368.653H829.021V348.848H848.827V368.653Z" fill="#53FDCA"/>
<path d="M868.87 348.61H849.064V328.805H868.87V348.61Z" fill="#53FDCA"/>
<path d="M888.911 328.569H869.105V308.764H888.911V328.569Z" fill="#53FDCA"/>
<path d="M908.952 308.528H889.146V288.722H908.952V308.528Z" fill="#53FDCA"/>
<path d="M928.993 288.486H909.188V268.681H928.993V288.486Z" fill="#53FDCA"/>
<path d="M560.939 161.443C560.939 213.77 518.52 256.188 466.193 256.188C413.867 256.188 371.449 213.77 371.449 161.443C371.449 109.116 413.867 66.6978 466.193 66.6978C518.52 66.6978 560.939 109.116 560.939 161.443Z" fill="#53FDCA"/>
<path d="M732.236 543.101C732.236 571.952 708.847 595.34 679.996 595.34C651.146 595.34 627.758 571.952 627.758 543.101C627.758 514.249 651.146 490.861 679.996 490.861C708.847 490.861 732.236 514.249 732.236 543.101Z" fill="#53FDCA"/>
<mask id="mask0_623_27879" style="mask-type:alpha" maskUnits="userSpaceOnUse" x="142" y="97" width="368" height="368">
<rect x="142" y="97" width="368" height="368" rx="184" fill="#C4C4C4"/>
</mask>
<g mask="url(#mask0_623_27879)">
<path d="M90.6289 109.413C132.366 106.018 170.884 90.8331 212.929 87.2638C242.664 84.7384 271.529 77.8558 301.46 76.9304C381.853 74.4451 462.761 76.8704 543.184 76.9344" stroke="white" stroke-opacity="0.4" stroke-miterlimit="10"/>
<path d="M90.5684 115.842C131.895 111.864 170.794 99.0076 212.304 95.213C242.64 92.441 271.592 84.3076 302.19 83.3423C382.087 80.8223 463.214 83.5756 543.184 84.1836" stroke="white" stroke-opacity="0.4" stroke-miterlimit="10"/>
<path d="M90.4121 120.989C130.989 117.145 170.791 107.941 211.328 103.545C242.827 100.129 272.148 89.4519 304.056 88.4466C338.639 87.3559 372.565 93.5159 407.056 93.8773C452.459 94.3506 497.788 91.1186 543.184 91.4319" stroke="white" stroke-opacity="0.4" stroke-miterlimit="10"/>
<path d="M90.1758 125.079C129.834 121.922 170.686 117.384 210.061 112.194C243.177 107.827 273.086 93.4831 306.862 92.4711C341.537 91.4338 374.506 101.722 408.916 103.13C453.721 104.962 498.401 98.6818 543.184 98.6818" stroke="white" stroke-opacity="0.4" stroke-miterlimit="10"/>
<path d="M89.8789 128.338C128.932 126.249 169.842 126.356 208.57 121.089C243.762 116.305 274.251 96.5637 310.407 95.6477C345.342 94.7624 376.944 109.894 411.291 112.773C455.214 116.456 499.295 106.456 543.184 105.93" stroke="white" stroke-opacity="0.4" stroke-miterlimit="10"/>
<path d="M89.5352 130.989C127.828 130.265 169.028 136.692 206.911 130.167C244.171 123.749 275.839 98.8467 314.491 98.2053C349.858 97.6173 379.76 118.032 414.04 122.703C456.759 128.524 500.49 114.371 543.183 113.18" stroke="white" stroke-opacity="0.4" stroke-miterlimit="10"/>
<path d="M89.1641 133.259C127.036 134.071 167.545 147.227 205.148 139.359C244.348 131.155 277.841 100.52 318.913 100.372C354.871 100.242 382.836 126.144 417.027 132.814C458.28 140.859 501.928 122.354 543.184 120.428" stroke="white" stroke-opacity="0.4" stroke-miterlimit="10"/>
<path d="M88.7812 135.372C126.672 137.828 165.297 157.901 203.343 148.597C244.487 138.534 279.987 102.56 323.476 102.378C359.933 102.228 386.288 134.308 420.111 142.997C459.792 153.19 503.472 130.34 543.184 127.678" stroke="white" stroke-opacity="0.4" stroke-miterlimit="10"/>
<path d="M88.4043 137.552C126.692 141.696 162.402 168.637 201.556 157.814C244.39 145.974 282.327 104.394 327.98 104.454C364.987 104.504 389.743 142.514 423.154 153.149C461.355 165.308 504.947 138.274 543.184 134.926" stroke="white" stroke-opacity="0.4" stroke-miterlimit="10"/>
<path d="M88.0469 140.025C126.96 145.799 159.134 179.303 199.85 166.945C244.16 153.497 284.656 106.471 332.222 106.831C369.802 107.113 393.022 150.773 426.012 163.163C462.994 177.051 506.212 146.121 543.184 142.176" stroke="white" stroke-opacity="0.4" stroke-miterlimit="10"/>
<path d="M87.7285 143.016C127.351 150.212 155.809 189.719 198.283 175.921C243.883 161.107 286.771 109.067 336.003 109.733C374.22 110.249 395.879 159.055 428.551 172.932C464.666 188.272 507.182 153.844 543.183 149.425" stroke="white" stroke-opacity="0.4" stroke-miterlimit="10"/>
<path d="M87.4668 146.75C127.817 154.995 152.697 199.692 196.92 184.675C219.381 177.048 241.097 161.735 261.144 149.551C282.519 136.56 312.443 112.903 339.125 113.394C378.097 114.111 398.056 167.303 430.632 182.354C466.277 198.82 507.816 161.404 543.183 156.675" stroke="white" stroke-opacity="0.4" stroke-miterlimit="10"/>
<path d="M87.2773 151.451C128.379 160.198 150.004 209.026 195.823 193.142C218.904 185.14 241.304 168.823 261.781 156.047C283.359 142.587 314.14 117.462 341.389 118.043C381.289 118.895 399.301 175.459 432.116 191.318C467.708 208.518 508.085 168.762 543.184 163.923" stroke="white" stroke-opacity="0.4" stroke-miterlimit="10"/>
<path d="M87.1777 157.345C129.095 165.873 147.868 217.524 195.051 201.25C218.512 193.16 241.467 175.997 262.138 162.876C283.944 149.034 314.86 123.3 342.595 123.909C383.654 124.81 399.363 183.478 432.862 199.721C468.843 217.168 507.948 175.87 543.184 171.173" stroke="white" stroke-opacity="0.4" stroke-miterlimit="10"/>
<path d="M87.0391 164.497C128.803 173.047 147.842 224.573 194.754 208.195C218.312 199.97 241.348 183.074 262.258 170.023C284.142 156.363 315.26 130.73 342.88 131.095C384.086 131.641 399.303 190.997 432.786 207.179C469.171 224.766 507.634 182.939 543.183 178.422" stroke="white" stroke-opacity="0.4" stroke-miterlimit="10"/>
<path d="M86.1855 172.181C127.286 180.926 148.971 229.405 194.595 213.375C218.247 205.065 241.23 189.434 262.659 176.866C284.695 163.943 316.666 138.859 343.836 139.065C384.103 139.369 399.807 198.359 432.326 214.43C468.698 232.402 507.552 190.181 543.183 185.671" stroke="white" stroke-opacity="0.4" stroke-miterlimit="10"/>
<path d="M84.6387 180.219C125.473 188.518 149.831 232.483 194.389 217.43C218.208 209.383 241.345 195.166 263.355 183.363C285.785 171.334 318.645 147.356 345.52 147.691C384.86 148.183 400.035 205.942 431.628 221.914C467.841 240.224 507.576 197.447 543.183 192.92" stroke="white" stroke-opacity="0.4" stroke-miterlimit="10"/>
<path d="M82.5293 188.544C123.315 195.869 150.537 234.172 194.14 220.584C218.187 213.089 241.627 200.414 264.253 189.625C287.275 178.649 321.009 156.245 347.725 156.936C386.16 157.931 400.012 213.726 430.724 229.601C466.68 248.185 507.68 204.734 543.184 200.169" stroke="white" stroke-opacity="0.4" stroke-miterlimit="10"/>
<path d="M79.9902 197.087C120.773 203.031 151.162 234.845 193.844 223.066C218.168 216.353 242.004 205.327 265.264 195.762C289.018 185.993 323.566 165.547 350.246 166.759C387.898 168.471 399.628 221.815 429.653 237.457C465.485 256.122 507.674 212.057 543.185 207.418" stroke="white" stroke-opacity="0.4" stroke-miterlimit="10"/>
<path d="M77.1543 205.783C117.908 210.08 151.681 234.883 193.498 225.104C218.134 219.343 242.412 210.059 266.296 201.885C290.89 193.469 326.118 175.276 352.882 177.121C390.717 179.729 397.781 231.237 428.45 245.448C466.081 262.883 506.098 219.601 543.184 214.668" stroke="white" stroke-opacity="0.4" stroke-miterlimit="10"/>
<path d="M74.1543 214.562C112.593 216.886 148.876 234.168 187.652 227.959C219.898 222.796 251.502 212.252 282.978 203.816C304.146 198.144 332.25 186.455 354.593 189.038C393.33 193.515 396.965 242.152 430.344 255.175C466.653 269.342 507.457 226.618 543.182 221.918" stroke="white" stroke-opacity="0.4" stroke-miterlimit="10"/>
<path d="M71.125 223.356C109.974 224.065 148.257 234.267 187.128 229.541C219.708 225.579 251.91 217.689 284.06 211.291C305.93 206.939 334.172 197.231 356.716 200.227C394.02 205.184 396.753 250.584 428.881 263.267C465.05 277.541 507.506 233.955 543.184 229.165" stroke="white" stroke-opacity="0.4" stroke-miterlimit="10"/>
<path d="M68.1973 232.098C107.643 231.282 147.199 234.614 186.573 231.351C219.455 228.626 252.16 223.403 284.855 219.098C307.423 216.125 335.54 208.459 358.371 211.815C394.227 217.085 396.497 259.178 427.419 271.379C463.581 285.649 507.464 241.295 543.184 236.415" stroke="white" stroke-opacity="0.4" stroke-miterlimit="10"/>
<path d="M65.502 240.721C105.687 238.565 145.79 235.453 185.994 233.631C219.111 232.129 252.181 229.539 285.255 227.324C308.474 225.769 336.182 220.152 359.363 223.773C393.81 229.153 396.182 267.927 425.998 279.484C462.39 293.588 507.249 248.649 543.183 243.665" stroke="white" stroke-opacity="0.4" stroke-miterlimit="10"/>
<path d="M63.1777 249.156C104.135 245.958 144.224 237.032 185.4 236.614C218.65 236.277 251.907 236.238 285.158 236.057C308.922 235.928 335.958 232.318 359.514 236.07C392.627 241.344 395.802 276.826 424.674 287.545C461.639 301.268 506.772 256.02 543.184 250.913" stroke="white" stroke-opacity="0.4" stroke-miterlimit="10"/>
<path d="M61.3496 257.336C103 253.523 142.704 239.625 184.796 240.541C241.154 241.767 302.952 240.028 358.622 248.675C390.52 253.631 395.34 285.871 423.486 295.532C461.472 308.573 505.942 263.417 543.183 258.163" stroke="white" stroke-opacity="0.4" stroke-miterlimit="10"/>
<path d="M60.1582 265.194C100.55 261.564 138.408 244.127 179.274 245.382C237.682 247.174 299.422 253.58 357.308 261.383C388.453 265.582 396.621 297.42 425.494 304.131C464.821 313.272 504.794 270.678 543.185 265.412" stroke="white" stroke-opacity="0.4" stroke-miterlimit="10"/>
<path d="M59.7305 272.661C100.456 269.689 137.577 249.713 178.813 251.816C236.989 254.781 295.582 268.052 353.484 274.62C384.142 278.096 396.022 306.38 424.865 311.737C465.861 319.353 503.374 278.077 543.184 272.661" stroke="white" stroke-opacity="0.4" stroke-miterlimit="10"/>
<path d="M60.2051 279.919C100.63 276.318 138.944 258.126 179.84 260.198C236.477 263.07 294.36 273.871 350.626 281.022C381.234 284.911 396.289 312.711 425.466 317.912C465.928 325.124 503.916 285.736 543.184 279.91" stroke="white" stroke-opacity="0.4" stroke-miterlimit="10"/>
<path d="M61.5273 287.193C103.59 283.373 144.429 267.881 186.923 270.481C239.641 273.705 293.969 279.693 346.282 286.866C376.751 291.045 394.67 315.658 423.594 321.944C464.531 330.84 503.549 293.184 543.183 287.16" stroke="white" stroke-opacity="0.4" stroke-miterlimit="10"/>
<path d="M63.5527 294.48C105.802 291.188 147.762 280.032 190.262 281.638C240.289 283.526 292.361 285.963 342.027 292.131C373.474 296.036 395.194 319.59 425.463 325.447C466.115 333.314 503.687 300.026 543.185 294.408" stroke="white" stroke-opacity="0.4" stroke-miterlimit="10"/>
<path d="M66.1309 301.778C156.134 296.819 247.206 287.983 337.366 297.122C370.246 300.454 395.814 322.635 427.791 328.033C467.89 334.801 504.028 306.527 543.183 301.658" stroke="white" stroke-opacity="0.4" stroke-miterlimit="10"/>
<path d="M69.1172 309.083C112.48 307.979 155.863 308.377 199.209 306.701C242.925 305.011 288.811 298.967 332.453 302.044C367.001 304.481 396.723 323.98 430.467 329.959C469.015 336.788 505.261 312.7 543.184 308.907" stroke="white" stroke-opacity="0.4" stroke-miterlimit="10"/>
<path d="M72.3652 316.393C116.261 316.746 160.575 324.02 204.392 320.109C244.825 316.501 286.827 305.741 327.439 307.109C363.783 308.332 397.673 325.829 433.365 331.486C470.751 337.413 506.169 318.785 543.184 316.156" stroke="white" stroke-opacity="0.4" stroke-miterlimit="10"/>
<path d="M75.7246 323.705C119.759 325.582 165.849 340.158 209.754 333.766C247.071 328.333 284.647 312.786 322.473 312.52C360.638 312.25 398.681 327.82 436.373 332.872C472.482 337.713 507.221 324.813 543.183 323.405" stroke="white" stroke-opacity="0.4" stroke-miterlimit="10"/>
<path d="M79.0508 331.017C123.927 334.485 174.313 357.186 218.877 346.534C251.061 338.841 283.989 318.465 317.247 317.558C355.605 316.51 396.799 329.247 434.943 333.847C471.327 338.235 506.799 330.926 543.184 330.654" stroke="white" stroke-opacity="0.4" stroke-miterlimit="10"/>
<path d="M82.1934 338.325C127.253 343.148 178.912 371.731 223.717 359.757C254.045 351.653 280.709 326.324 312.651 324.247C352.663 321.645 397.529 332.317 437.627 335.849C472.787 338.947 507.944 337.065 543.183 337.904" stroke="white" stroke-opacity="0.4" stroke-miterlimit="10"/>
<path d="M85.0098 345.627C128.95 351.385 184.568 386.899 228.134 372.537C256.516 363.178 277.816 335.014 308.619 331.966C350.171 327.853 398.166 336.161 440.099 338.501C474.483 340.419 508.794 343.421 543.183 345.153" stroke="white" stroke-opacity="0.4" stroke-miterlimit="10"/>
<path d="M87.3496 352.92C130.211 359.229 189.498 400.725 231.927 384.636C258.943 374.392 275.07 344.7 305.326 340.937C348.422 335.576 398.554 341.036 442.252 342.059C476.444 342.857 509.218 350.056 543.184 352.401" stroke="white" stroke-opacity="0.4" stroke-miterlimit="10"/>
<path d="M89.0664 360.202C117.621 364.59 141.966 375.051 168.702 385.523C189.025 393.483 213.136 404.618 234.893 395.826C261.138 385.223 272.781 355.486 302.944 351.38C347.714 345.286 398.538 347.22 443.978 346.78C478.47 346.447 509.249 357.05 543.184 359.651" stroke="white" stroke-opacity="0.4" stroke-miterlimit="10"/>
<path d="M90.0117 367.469C119.105 371.782 143.214 382.995 170.173 394.189C189.87 402.367 215.212 414.343 236.836 405.871C262.894 395.659 271.321 367.451 301.646 363.517C348.2 357.477 398.117 355.003 445.17 352.923C480.205 351.373 509.032 364.499 543.184 366.899" stroke="white" stroke-opacity="0.4" stroke-miterlimit="10"/>
<path d="M90.0449 374.719C119.236 378.947 143.277 390.279 170.273 401.575C189.841 409.761 215.509 421.732 237.177 413.812C263.225 404.293 271.261 377.867 301.398 374.149C348.645 368.32 397.558 363.275 445.142 360.112C480.564 357.756 508.754 371.896 543.184 374.149" stroke="white" stroke-opacity="0.4" stroke-miterlimit="10"/>
<path d="M89.1582 381.95C118.016 386.254 142.26 397.102 169.137 407.928C188.934 415.902 214.17 427.417 235.89 419.734C261.75 410.589 271.422 385.368 300.89 381.398C347.413 375.132 395.353 369.804 442.209 365.964C478.609 362.978 507.782 378.306 543.185 381.398" stroke="white" stroke-opacity="0.4" stroke-miterlimit="10"/>
<path d="M87.4902 389.168C131.177 395.516 189.616 439.257 233.61 424.726C259.381 416.213 271.198 392.858 299.937 388.646C345.293 382.002 391.372 375.624 436.98 370.666C474.926 366.541 506.262 384.274 543.185 388.646" stroke="white" stroke-opacity="0.4" stroke-miterlimit="10"/>
<path d="M85.1895 396.375C129.484 402.347 185.907 442.261 230.525 428.961C256.252 421.293 270.669 400.355 298.621 395.897C342.408 388.911 386.179 380.995 430.068 374.643C469.564 368.928 504.717 390.037 543.184 395.897" stroke="white" stroke-opacity="0.4" stroke-miterlimit="10"/>
<path d="M82.4004 403.571C127.446 408.938 181.444 444.403 226.82 432.618C252.344 425.989 270.327 408.487 297.027 403.146C338.678 394.813 380.339 386.158 422.09 378.318C462.718 370.686 503.503 395.845 543.183 403.146" stroke="white" stroke-opacity="0.4" stroke-miterlimit="10"/>
<path d="M79.2754 410.761C125.057 415.328 176.589 445.92 222.687 435.871C248.193 430.309 269.198 415.684 295.242 410.395C334.955 402.329 374.206 391.381 413.659 382.109C454.822 372.435 502.757 401.893 543.185 410.395" stroke="white" stroke-opacity="0.4" stroke-miterlimit="10"/>
<path d="M75.957 417.949C121.62 421.418 168.984 445.65 214.946 439.385C241.625 435.748 266.19 421.948 292.946 416.92C332.356 409.513 369.956 393.16 409.266 385.35C450.465 377.165 502.769 408.418 543.184 417.644" stroke="white" stroke-opacity="0.4" stroke-miterlimit="10"/>
<path d="M72.5957 425.134C118.357 427.595 164.465 447.052 210.442 442.236C237.241 439.43 264.284 429.095 290.852 424.012C328.577 416.798 364.157 399.147 401.586 390.552C424.21 385.359 446.112 395.419 467.669 402.551C492.745 410.85 517.47 418.739 543.184 424.892" stroke="white" stroke-opacity="0.4" stroke-miterlimit="10"/>
<path d="M69.334 432.322C114.975 433.801 160.291 448.69 206.071 445.217C233.186 443.16 262.151 436.178 288.862 431.157C325.007 424.364 359.083 402.588 395.347 397.194C441.205 390.376 498.066 421.262 543.183 432.141" stroke="white" stroke-opacity="0.4" stroke-miterlimit="10"/>
<path d="M66.3262 439.515C111.69 440.131 156.585 450.815 202.025 448.506C229.669 447.102 259.885 443.128 287.086 438.374C322.509 432.18 355.725 411.047 391.186 405.714C437.902 398.688 497.085 428.671 543.185 439.391" stroke="white" stroke-opacity="0.4" stroke-miterlimit="10"/>
<path d="M63.7129 446.715C138.082 446.647 211.397 456.76 285.625 445.681C320.958 440.408 354.412 421.329 389.736 416.551C437.36 410.107 496.072 436.684 543.184 446.64" stroke="white" stroke-opacity="0.4" stroke-miterlimit="10"/>
<path d="M61.6465 453.926C135.582 453.19 211.4 462.395 285.165 453.89C322.033 449.639 357.981 432.451 394.978 429.347C442.18 425.388 496.669 445.831 543.184 453.89" stroke="white" stroke-opacity="0.4" stroke-miterlimit="10"/>
<path d="M60.2695 461.148C134.726 460.387 209.998 465.688 284.378 461.139C323.38 458.753 362.08 448.103 401.124 446.444C447.795 444.46 496.808 455.977 543.184 461.139" stroke="white" stroke-opacity="0.4" stroke-miterlimit="10"/>
</g>
<path d="M727.291 383.521H698.988V355.218H727.291V383.521Z" stroke="white" stroke-width="0.333333" stroke-miterlimit="10"/>
<path d="M755.594 383.521H727.291V355.218H755.594V383.521Z" stroke="white" stroke-width="0.333333" stroke-miterlimit="10"/>
<path d="M783.896 383.521H755.594V355.218H783.896V383.521Z" stroke="white" stroke-width="0.333333" stroke-miterlimit="10"/>
<path d="M812.199 383.521H783.896V355.218H812.199V383.521Z" stroke="white" stroke-width="0.333333" stroke-miterlimit="10"/>
<path d="M840.5 383.521H812.197V355.218H840.5V383.521Z" stroke="white" stroke-width="0.333333" stroke-miterlimit="10"/>
<path d="M868.803 383.521H840.5V355.218H868.803V383.521Z" stroke="white" stroke-width="0.333333" stroke-miterlimit="10"/>
<path d="M727.291 411.822H698.988V383.52H727.291V411.822Z" stroke="white" stroke-width="0.333333" stroke-miterlimit="10"/>
<path d="M755.594 411.822H727.291V383.52H755.594V411.822Z" stroke="white" stroke-width="0.333333" stroke-miterlimit="10"/>
<path d="M783.896 411.822H755.594V383.52H783.896V411.822Z" stroke="white" stroke-width="0.333333" stroke-miterlimit="10"/>
<path d="M812.199 411.822H783.896V383.52H812.199V411.822Z" stroke="white" stroke-width="0.333333" stroke-miterlimit="10"/>
<path d="M840.5 411.822H812.197V383.52H840.5V411.822Z" stroke="white" stroke-width="0.333333" stroke-miterlimit="10"/>
<path d="M868.803 411.822H840.5V383.52H868.803V411.822Z" stroke="white" stroke-width="0.333333" stroke-miterlimit="10"/>
<path d="M727.291 440.125H698.988V411.822H727.291V440.125Z" stroke="white" stroke-width="0.333333" stroke-miterlimit="10"/>
<path d="M755.594 440.125H727.291V411.822H755.594V440.125Z" stroke="white" stroke-width="0.333333" stroke-miterlimit="10"/>
<path d="M783.896 440.125H755.594V411.822H783.896V440.125Z" stroke="white" stroke-width="0.333333" stroke-miterlimit="10"/>
<path d="M812.199 440.125H783.896V411.822H812.199V440.125Z" stroke="white" stroke-width="0.333333" stroke-miterlimit="10"/>
<path d="M840.5 440.125H812.197V411.822H840.5V440.125Z" stroke="white" stroke-width="0.333333" stroke-miterlimit="10"/>
<path d="M868.803 440.125H840.5V411.822H868.803V440.125Z" stroke="white" stroke-width="0.333333" stroke-miterlimit="10"/>
<path d="M727.291 468.426H698.988V440.124H727.291V468.426Z" stroke="white" stroke-width="0.333333" stroke-miterlimit="10"/>
<path d="M755.594 468.426H727.291V440.124H755.594V468.426Z" stroke="white" stroke-width="0.333333" stroke-miterlimit="10"/>
<path d="M783.896 468.426H755.594V440.124H783.896V468.426Z" stroke="white" stroke-width="0.333333" stroke-miterlimit="10"/>
<path d="M812.199 468.426H783.896V440.124H812.199V468.426Z" stroke="white" stroke-width="0.333333" stroke-miterlimit="10"/>
<path d="M840.5 468.426H812.197V440.124H840.5V468.426Z" stroke="white" stroke-width="0.333333" stroke-miterlimit="10"/>
<path d="M868.803 468.426H840.5V440.124H868.803V468.426Z" stroke="white" stroke-width="0.333333" stroke-miterlimit="10"/>
<path d="M727.291 496.729H698.988V468.426H727.291V496.729Z" stroke="white" stroke-width="0.333333" stroke-miterlimit="10"/>
<path d="M755.594 496.729H727.291V468.426H755.594V496.729Z" stroke="white" stroke-width="0.333333" stroke-miterlimit="10"/>
<path d="M783.896 496.729H755.594V468.426H783.896V496.729Z" stroke="white" stroke-width="0.333333" stroke-miterlimit="10"/>
<path d="M812.199 496.729H783.896V468.426H812.199V496.729Z" stroke="white" stroke-width="0.333333" stroke-miterlimit="10"/>
<path d="M840.5 496.729H812.197V468.426H840.5V496.729Z" stroke="white" stroke-width="0.333333" stroke-miterlimit="10"/>
<path d="M868.803 496.729H840.5V468.426H868.803V496.729Z" stroke="white" stroke-width="0.333333" stroke-miterlimit="10"/>
<path d="M727.291 525.03H698.988V496.728H727.291V525.03Z" stroke="white" stroke-width="0.333333" stroke-miterlimit="10"/>
<path d="M755.594 525.03H727.291V496.728H755.594V525.03Z" stroke="white" stroke-width="0.333333" stroke-miterlimit="10"/>
<path d="M783.896 525.03H755.594V496.728H783.896V525.03Z" stroke="white" stroke-width="0.333333" stroke-miterlimit="10"/>
<path d="M812.199 525.03H783.896V496.728H812.199V525.03Z" stroke="white" stroke-width="0.333333" stroke-miterlimit="10"/>
<path d="M840.5 525.03H812.197V496.728H840.5V525.03Z" stroke="white" stroke-width="0.333333" stroke-miterlimit="10"/>
<path d="M868.803 525.03H840.5V496.728H868.803V525.03Z" stroke="white" stroke-width="0.333333" stroke-miterlimit="10"/>
<path d="M616.851 321.896C612.799 325.808 611.099 331.987 612.918 338.523C615.739 348.67 625.99 355.89 635.762 354.614C639.234 354.16 642.185 352.694 644.421 350.536L795.203 204.48C792.967 206.638 789.418 209.199 785.946 209.651C776.175 210.927 765.925 203.707 763.101 193.562C761.283 187.026 762.985 180.846 767.037 176.934C721.982 220.423 661.907 278.408 616.851 321.896Z" stroke="white" stroke-width="0.666667" stroke-miterlimit="10"/>
<path d="M617.074 322.127C619.276 320.002 622.184 318.558 625.604 318.11C635.213 316.855 645.292 323.956 648.068 333.932C649.858 340.37 647.989 347.074 644 350.923L794.381 205.343C798.37 201.494 800.044 195.407 798.253 188.97C795.477 178.994 785.397 171.894 775.789 173.148C772.369 173.595 769.46 175.04 767.258 177.166" stroke="white" stroke-width="0.666667" stroke-miterlimit="10"/>
<path d="M587.762 490.862H629.407" stroke="white" stroke-width="2.66667" stroke-miterlimit="10"/>
<path d="M665.215 413.408V455.054" stroke="white" stroke-width="2.66667" stroke-miterlimit="10"/>
<path d="M665.215 526.668V568.313" stroke="white" stroke-width="2.66667" stroke-miterlimit="10"/>
<path d="M610.447 436.094L639.895 465.542" stroke="white" stroke-width="2.66667" stroke-miterlimit="10"/>
<path d="M639.895 516.181L610.447 545.629" stroke="white" stroke-width="2.66667" stroke-miterlimit="10"/>
<path d="M593.363 461.945L631.998 477.493" stroke="white" stroke-width="2.66667" stroke-miterlimit="10"/>
<path d="M651.847 524.079L636.299 562.714" stroke="white" stroke-width="2.66667" stroke-miterlimit="10"/>
<path d="M634.854 419.608L651.179 457.92" stroke="white" stroke-width="2.66667" stroke-miterlimit="10"/>
<path d="M632.273 504.897L593.961 521.222" stroke="white" stroke-width="2.66667" stroke-miterlimit="10"/>
<path d="M589.422 474.911L630.174 483.489" stroke="white" stroke-width="2.66667" stroke-miterlimit="10"/>
<path d="M657.84 525.901L649.264 566.653" stroke="white" stroke-width="2.66667" stroke-miterlimit="10"/>
<path d="M622.898 425.989L645.65 460.871" stroke="white" stroke-width="2.66667" stroke-miterlimit="10"/>
<path d="M635.224 510.424L600.344 533.176" stroke="white" stroke-width="2.66667" stroke-miterlimit="10"/>
<path d="M600.857 447.768L635.461 470.939" stroke="white" stroke-width="2.66667" stroke-miterlimit="10"/>
<path d="M645.292 520.614L622.121 555.218" stroke="white" stroke-width="2.66667" stroke-miterlimit="10"/>
<path d="M650.178 414.883L658.262 455.736" stroke="white" stroke-width="2.66667" stroke-miterlimit="10"/>
<path d="M630.09 497.812L589.236 505.897" stroke="white" stroke-width="2.66667" stroke-miterlimit="10"/>
<path d="M587.762 86.1559L603.546 101.94" stroke="#CDCDCD" stroke-width="1.33333" stroke-miterlimit="10"/>
<path d="M603.546 86.1559L587.762 101.94" stroke="#CDCDCD" stroke-width="1.33333" stroke-miterlimit="10"/>
<path d="M637.852 86.1559L653.637 101.94" stroke="#CDCDCD" stroke-width="1.33333" stroke-miterlimit="10"/>
<path d="M653.635 86.1559L637.85 101.94" stroke="#CDCDCD" stroke-width="1.33333" stroke-miterlimit="10"/>
<path d="M687.939 86.1559L703.723 101.94" stroke="#CDCDCD" stroke-width="1.33333" stroke-miterlimit="10"/>
<path d="M703.723 86.1559L687.939 101.94" stroke="#CDCDCD" stroke-width="1.33333" stroke-miterlimit="10"/>
<path d="M738.029 86.1559L753.813 101.94" stroke="#CDCDCD" stroke-width="1.33333" stroke-miterlimit="10"/>
<path d="M753.813 86.1559L738.029 101.94" stroke="#CDCDCD" stroke-width="1.33333" stroke-miterlimit="10"/>
<path d="M587.762 130.034L603.546 145.818" stroke="#CDCDCD" stroke-width="1.33333" stroke-miterlimit="10"/>
<path d="M603.546 130.034L587.762 145.818" stroke="#CDCDCD" stroke-width="1.33333" stroke-miterlimit="10"/>
<path d="M637.852 130.034L653.637 145.818" stroke="#CDCDCD" stroke-width="1.33333" stroke-miterlimit="10"/>
<path d="M653.635 130.034L637.85 145.818" stroke="#CDCDCD" stroke-width="1.33333" stroke-miterlimit="10"/>
<path d="M687.939 130.034L703.723 145.818" stroke="#CDCDCD" stroke-width="1.33333" stroke-miterlimit="10"/>
<path d="M703.723 130.034L687.939 145.818" stroke="#CDCDCD" stroke-width="1.33333" stroke-miterlimit="10"/>
<path d="M738.029 130.034L753.813 145.818" stroke="#CDCDCD" stroke-width="1.33333" stroke-miterlimit="10"/>
<path d="M753.813 130.034L738.029 145.818" stroke="#CDCDCD" stroke-width="1.33333" stroke-miterlimit="10"/>
<path d="M587.762 173.911L603.546 189.695" stroke="#CDCDCD" stroke-width="1.33333" stroke-miterlimit="10"/>
<path d="M603.546 173.911L587.762 189.695" stroke="#CDCDCD" stroke-width="1.33333" stroke-miterlimit="10"/>
<path d="M637.852 173.911L653.637 189.695" stroke="#CDCDCD" stroke-width="1.33333" stroke-miterlimit="10"/>
<path d="M653.635 173.911L637.85 189.695" stroke="#CDCDCD" stroke-width="1.33333" stroke-miterlimit="10"/>
<path d="M687.939 173.911L703.723 189.695" stroke="#CDCDCD" stroke-width="1.33333" stroke-miterlimit="10"/>
<path d="M703.723 173.911L687.939 189.695" stroke="#CDCDCD" stroke-width="1.33333" stroke-miterlimit="10"/>
<path d="M738.029 173.911L753.813 189.695" stroke="#CDCDCD" stroke-width="1.33333" stroke-miterlimit="10"/>
<path d="M753.813 173.911L738.029 189.695" stroke="#CDCDCD" stroke-width="1.33333" stroke-miterlimit="10"/>
<path d="M587.762 217.789L603.546 233.573" stroke="#CDCDCD" stroke-width="1.33333" stroke-miterlimit="10"/>
<path d="M603.546 217.789L587.762 233.573" stroke="#CDCDCD" stroke-width="1.33333" stroke-miterlimit="10"/>
<path d="M637.852 217.789L653.637 233.573" stroke="#CDCDCD" stroke-width="1.33333" stroke-miterlimit="10"/>
<path d="M653.635 217.789L637.85 233.573" stroke="#CDCDCD" stroke-width="1.33333" stroke-miterlimit="10"/>
<path d="M687.939 217.789L703.723 233.573" stroke="#CDCDCD" stroke-width="1.33333" stroke-miterlimit="10"/>
<path d="M703.723 217.789L687.939 233.573" stroke="#CDCDCD" stroke-width="1.33333" stroke-miterlimit="10"/>
<path d="M738.029 217.789L753.813 233.573" stroke="#CDCDCD" stroke-width="1.33333" stroke-miterlimit="10"/>
<path d="M753.813 217.789L738.029 233.573" stroke="#CDCDCD" stroke-width="1.33333" stroke-miterlimit="10"/>
<path d="M276.952 484.685C276.952 538.367 233.433 581.885 179.752 581.885C126.069 581.885 82.5508 538.367 82.5508 484.685C82.5508 431.001 126.069 387.483 179.752 387.483C233.433 387.483 276.952 431.001 276.952 484.685Z" stroke="#CDCDCD" stroke-width="2.66667" stroke-miterlimit="10"/>
<path d="M90.9238 493.178C90.9238 447.34 128.082 410.18 173.921 410.18C219.76 410.18 256.918 447.34 256.918 493.178C256.918 539.017 219.76 576.176 173.921 576.176C128.082 576.176 90.9238 539.017 90.9238 493.178Z" stroke="#CDCDCD" stroke-width="2.4" stroke-miterlimit="10"/>
<path d="M99.2969 501.672C99.2969 463.677 130.098 432.876 168.093 432.876C206.088 432.876 236.886 463.677 236.886 501.672C236.886 539.666 206.088 570.466 168.093 570.466C130.098 570.466 99.2969 539.666 99.2969 501.672Z" stroke="#CDCDCD" stroke-width="2.13333" stroke-miterlimit="10"/>
<path d="M107.672 510.165C107.672 480.016 132.113 455.573 162.264 455.573C192.415 455.573 216.857 480.016 216.857 510.165C216.857 540.316 192.415 564.757 162.264 564.757C132.113 564.757 107.672 540.316 107.672 510.165Z" stroke="#CDCDCD" stroke-width="1.86667" stroke-miterlimit="10"/>
<path d="M116.045 518.659C116.045 496.353 134.129 478.269 156.434 478.269C178.74 478.269 196.824 496.353 196.824 518.659C196.824 540.965 178.74 559.048 156.434 559.048C134.129 559.048 116.045 540.965 116.045 518.659Z" stroke="#CDCDCD" stroke-width="1.6" stroke-miterlimit="10"/>
<path d="M176.79 527.152C176.79 541.616 165.066 553.34 150.603 553.34C136.142 553.34 124.418 541.616 124.418 527.152C124.418 512.69 136.142 500.966 150.603 500.966C165.066 500.966 176.79 512.69 176.79 527.152Z" stroke="#CDCDCD" stroke-width="1.33333" stroke-miterlimit="10"/>
<path d="M765.873 570.513L781.277 551.157" stroke="white" stroke-width="0.666667" stroke-miterlimit="10"/>
<path d="M773.576 570.513L788.98 551.157" stroke="white" stroke-width="0.666667" stroke-miterlimit="10"/>
<path d="M781.277 570.513L796.681 551.157" stroke="white" stroke-width="0.666667" stroke-miterlimit="10"/>
<path d="M788.979 570.513L804.383 551.157" stroke="white" stroke-width="0.666667" stroke-miterlimit="10"/>
<path d="M796.682 570.513L812.086 551.157" stroke="white" stroke-width="0.666667" stroke-miterlimit="10"/>
<path d="M804.383 570.513L819.788 551.157" stroke="white" stroke-width="0.666667" stroke-miterlimit="10"/>
<path d="M812.084 570.513L827.489 551.157" stroke="white" stroke-width="0.666667" stroke-miterlimit="10"/>
<path d="M819.787 570.513L835.191 551.157" stroke="white" stroke-width="0.666667" stroke-miterlimit="10"/>
<path d="M827.49 570.513L842.894 551.157" stroke="white" stroke-width="0.666667" stroke-miterlimit="10"/>
<path d="M835.191 570.513L850.595 551.157" stroke="white" stroke-width="0.666667" stroke-miterlimit="10"/>
<path d="M842.893 570.513L858.297 551.157" stroke="white" stroke-width="0.666667" stroke-miterlimit="10"/>
<path d="M850.596 570.513L866 551.157" stroke="white" stroke-width="0.666667" stroke-miterlimit="10"/>
<path d="M858.297 570.513L873.701 551.157" stroke="white" stroke-width="0.666667" stroke-miterlimit="10"/>
<path d="M865.998 570.513L881.402 551.157" stroke="white" stroke-width="0.666667" stroke-miterlimit="10"/>
<path d="M873.701 570.513L889.105 551.157" stroke="white" stroke-width="0.666667" stroke-miterlimit="10"/>
<path d="M881.402 570.513L896.806 551.157" stroke="white" stroke-width="0.666667" stroke-miterlimit="10"/>
<path d="M889.104 570.513L904.508 551.157" stroke="white" stroke-width="0.666667" stroke-miterlimit="10"/>
<path d="M896.807 570.513L912.211 551.157" stroke="white" stroke-width="0.666667" stroke-miterlimit="10"/>
<path d="M904.508 570.513L919.912 551.157" stroke="white" stroke-width="0.666667" stroke-miterlimit="10"/>
<path d="M587.763 396.262C587.763 439.116 553.022 473.855 510.168 473.855C467.314 473.855 432.572 439.116 432.572 396.262C432.572 353.407 467.314 318.667 510.168 318.667C553.022 318.667 587.763 353.407 587.763 396.262Z" stroke="#CDCDCD" stroke-width="1.33333" stroke-miterlimit="10"/>
<path d="M510.168 389.838V402.684" stroke="#CDCDCD" stroke-width="1.33333" stroke-miterlimit="10"/>
<path d="M516.591 396.262H503.744" stroke="#CDCDCD" stroke-width="1.33333" stroke-miterlimit="10"/>
<mask id="mask1_623_27879" style="mask-type:alpha" maskUnits="userSpaceOnUse" x="354" y="490" width="97" height="97">
<path d="M402.46 518.181L374.279 490L354 510.279L382.181 538.46L354 566.643L374.279 586.921L402.46 558.739L430.643 586.921L450.921 566.643L422.739 538.46L450.921 510.279L430.643 490L402.46 518.181Z" fill="url(#paint0_linear_623_27879)"/>
</mask>
<g mask="url(#mask1_623_27879)">
<path d="M332.502 545.057L385.363 442.377" stroke="#CDCDCD" stroke-width="1.33333" stroke-miterlimit="10"/>
<path d="M338.047 550.603L390.908 447.923" stroke="#CDCDCD" stroke-width="1.33333" stroke-miterlimit="10"/>
<path d="M343.594 556.147L396.455 453.468" stroke="#CDCDCD" stroke-width="1.33333" stroke-miterlimit="10"/>
<path d="M349.137 561.692L401.998 459.014" stroke="#CDCDCD" stroke-width="1.33333" stroke-miterlimit="10"/>
<path d="M354.684 567.238L407.545 464.56" stroke="#CDCDCD" stroke-width="1.33333" stroke-miterlimit="10"/>
<path d="M360.229 572.784L413.09 470.105" stroke="#CDCDCD" stroke-width="1.33333" stroke-miterlimit="10"/>
<path d="M365.773 578.33L418.635 475.651" stroke="#CDCDCD" stroke-width="1.33333" stroke-miterlimit="10"/>
<path d="M371.32 583.875L424.182 481.195" stroke="#CDCDCD" stroke-width="1.33333" stroke-miterlimit="10"/>
<path d="M376.865 589.419L429.727 486.741" stroke="#CDCDCD" stroke-width="1.33333" stroke-miterlimit="10"/>
<path d="M382.41 594.965L435.271 492.286" stroke="#CDCDCD" stroke-width="1.33333" stroke-miterlimit="10"/>
<path d="M387.955 600.51L440.816 497.832" stroke="#CDCDCD" stroke-width="1.33333" stroke-miterlimit="10"/>
<path d="M393.5 606.056L446.361 503.377" stroke="#CDCDCD" stroke-width="1.33333" stroke-miterlimit="10"/>
<path d="M399.047 611.602L451.908 508.923" stroke="#CDCDCD" stroke-width="1.33333" stroke-miterlimit="10"/>
<path d="M404.592 617.147L457.453 514.468" stroke="#CDCDCD" stroke-width="1.33333" stroke-miterlimit="10"/>
<path d="M410.137 622.692L462.998 520.012" stroke="#CDCDCD" stroke-width="1.33333" stroke-miterlimit="10"/>
<path d="M415.684 628.237L468.545 525.558" stroke="#CDCDCD" stroke-width="1.33333" stroke-miterlimit="10"/>
</g>
<path d="M755.037 309.45L762.084 313.857C766.397 316.553 771.869 316.554 776.181 313.858L776.182 313.857C780.497 311.161 785.969 311.161 790.281 313.858C794.593 316.554 800.065 316.554 804.377 313.86L804.388 313.853C808.698 311.16 814.169 311.16 818.48 313.853L825.54 318.265" stroke="white" stroke-width="4" stroke-miterlimit="10"/>
<path d="M755.037 285.933L762.084 290.339C766.397 293.035 771.869 293.037 776.181 290.341L776.182 290.339C780.497 287.643 785.969 287.643 790.281 290.341C794.593 293.037 800.065 293.037 804.377 290.342L804.388 290.335C808.698 287.642 814.169 287.642 818.48 290.335L825.54 294.746" stroke="white" stroke-width="4" stroke-miterlimit="10"/>
<path d="M933.619 137.926C933.619 172.816 905.334 201.102 870.443 201.102C835.551 201.102 807.266 172.816 807.266 137.926C807.266 103.035 835.551 74.7496 870.443 74.7496C905.334 74.7496 933.619 103.035 933.619 137.926Z" stroke="white" stroke-width="4" stroke-miterlimit="10" stroke-linecap="round" stroke-dasharray="1 8"/>
<path d="M827.916 137.925C827.916 114.439 846.956 95.3988 870.444 95.3988C893.929 95.3988 912.969 114.439 912.969 137.925C912.969 161.412 893.929 180.452 870.444 180.452C846.956 180.452 827.916 161.412 827.916 137.925Z" stroke="white" stroke-width="4" stroke-miterlimit="10" stroke-linecap="round" stroke-dasharray="1 8"/>
<path d="M892.32 137.926C892.32 150.009 882.525 159.803 870.444 159.803C858.36 159.803 848.566 150.009 848.566 137.926C848.566 125.843 858.36 116.049 870.444 116.049C882.525 116.049 892.32 125.843 892.32 137.926Z" stroke="white" stroke-width="4" stroke-miterlimit="10" stroke-linecap="round" stroke-dasharray="1 8"/>
<path d="M58.0686 153.425C58.0686 154.202 57.4379 154.833 56.6606 154.833C55.8832 154.833 55.2539 154.202 55.2539 153.425C55.2539 152.648 55.8832 152.017 56.6606 152.017C57.4379 152.017 58.0686 152.648 58.0686 153.425Z" fill="white"/>
<path d="M58.0686 164.91C58.0686 165.687 57.4379 166.318 56.6606 166.318C55.8832 166.318 55.2539 165.687 55.2539 164.91C55.2539 164.133 55.8832 163.502 56.6606 163.502C57.4379 163.502 58.0686 164.133 58.0686 164.91Z" fill="white"/>
<path d="M58.0686 176.395C58.0686 177.173 57.4379 177.803 56.6606 177.803C55.8832 177.803 55.2539 177.173 55.2539 176.395C55.2539 175.618 55.8832 174.987 56.6606 174.987C57.4379 174.987 58.0686 175.618 58.0686 176.395Z" fill="white"/>
<path d="M58.0686 187.88C58.0686 188.657 57.4379 189.288 56.6606 189.288C55.8832 189.288 55.2539 188.657 55.2539 187.88C55.2539 187.103 55.8832 186.472 56.6606 186.472C57.4379 186.472 58.0686 187.103 58.0686 187.88Z" fill="white"/>
<path d="M58.0686 199.365C58.0686 200.142 57.4379 200.773 56.6606 200.773C55.8832 200.773 55.2539 200.142 55.2539 199.365C55.2539 198.588 55.8832 197.957 56.6606 197.957C57.4379 197.957 58.0686 198.588 58.0686 199.365Z" fill="white"/>
<path d="M67.0914 84.5153C67.0914 85.2927 66.4607 85.9233 65.6834 85.9233C64.9061 85.9233 64.2754 85.2927 64.2754 84.5153C64.2754 83.738 64.9061 83.1073 65.6834 83.1073C66.4607 83.1073 67.0914 83.738 67.0914 84.5153Z" fill="white"/>
<path d="M67.0914 96.0007C67.0914 96.778 66.4607 97.4087 65.6834 97.4087C64.9061 97.4087 64.2754 96.778 64.2754 96.0007C64.2754 95.2234 64.9061 94.5927 65.6834 94.5927C66.4607 94.5927 67.0914 95.2234 67.0914 96.0007Z" fill="white"/>
<path d="M67.0914 107.485C67.0914 108.262 66.4607 108.893 65.6834 108.893C64.9061 108.893 64.2754 108.262 64.2754 107.485C64.2754 106.708 64.9061 106.077 65.6834 106.077C66.4607 106.077 67.0914 106.708 67.0914 107.485Z" fill="white"/>
<path d="M67.0914 118.97C67.0914 119.747 66.4607 120.378 65.6834 120.378C64.9061 120.378 64.2754 119.747 64.2754 118.97C64.2754 118.193 64.9061 117.562 65.6834 117.562C66.4607 117.562 67.0914 118.193 67.0914 118.97Z" fill="white"/>
<path d="M67.0914 130.455C67.0914 131.233 66.4607 131.863 65.6834 131.863C64.9061 131.863 64.2754 131.233 64.2754 130.455C64.2754 129.678 64.9061 129.047 65.6834 129.047C66.4607 129.047 67.0914 129.678 67.0914 130.455Z" fill="white"/>
<path d="M67.0914 141.94C67.0914 142.717 66.4607 143.348 65.6834 143.348C64.9061 143.348 64.2754 142.717 64.2754 141.94C64.2754 141.163 64.9061 140.532 65.6834 140.532C66.4607 140.532 67.0914 141.163 67.0914 141.94Z" fill="white"/>
<path d="M67.0914 153.425C67.0914 154.202 66.4607 154.833 65.6834 154.833C64.9061 154.833 64.2754 154.202 64.2754 153.425C64.2754 152.648 64.9061 152.017 65.6834 152.017C66.4607 152.017 67.0914 152.648 67.0914 153.425Z" fill="white"/>
<path d="M67.0914 164.91C67.0914 165.687 66.4607 166.318 65.6834 166.318C64.9061 166.318 64.2754 165.687 64.2754 164.91C64.2754 164.133 64.9061 163.502 65.6834 163.502C66.4607 163.502 67.0914 164.133 67.0914 164.91Z" fill="white"/>
<path d="M67.0914 176.395C67.0914 177.173 66.4607 177.803 65.6834 177.803C64.9061 177.803 64.2754 177.173 64.2754 176.395C64.2754 175.618 64.9061 174.987 65.6834 174.987C66.4607 174.987 67.0914 175.618 67.0914 176.395Z" fill="white"/>
<path d="M67.0914 187.88C67.0914 188.657 66.4607 189.288 65.6834 189.288C64.9061 189.288 64.2754 188.657 64.2754 187.88C64.2754 187.103 64.9061 186.472 65.6834 186.472C66.4607 186.472 67.0914 187.103 67.0914 187.88Z" fill="white"/>
<path d="M67.0914 199.365C67.0914 200.142 66.4607 200.773 65.6834 200.773C64.9061 200.773 64.2754 200.142 64.2754 199.365C64.2754 198.588 64.9061 197.957 65.6834 197.957C66.4607 197.957 67.0914 198.588 67.0914 199.365Z" fill="white"/>
<path d="M76.1148 84.5153C76.1148 85.2927 75.4842 85.9233 74.7068 85.9233C73.9282 85.9233 73.2988 85.2927 73.2988 84.5153C73.2988 83.738 73.9282 83.1073 74.7068 83.1073C75.4842 83.1073 76.1148 83.738 76.1148 84.5153Z" fill="white"/>
<path d="M76.1148 96.0007C76.1148 96.778 75.4842 97.4087 74.7068 97.4087C73.9282 97.4087 73.2988 96.778 73.2988 96.0007C73.2988 95.2234 73.9282 94.5927 74.7068 94.5927C75.4842 94.5927 76.1148 95.2234 76.1148 96.0007Z" fill="white"/>
<path d="M76.1148 107.485C76.1148 108.262 75.4842 108.893 74.7068 108.893C73.9282 108.893 73.2988 108.262 73.2988 107.485C73.2988 106.708 73.9282 106.077 74.7068 106.077C75.4842 106.077 76.1148 106.708 76.1148 107.485Z" fill="white"/>
<path d="M76.1148 118.97C76.1148 119.747 75.4842 120.378 74.7068 120.378C73.9282 120.378 73.2988 119.747 73.2988 118.97C73.2988 118.193 73.9282 117.562 74.7068 117.562C75.4842 117.562 76.1148 118.193 76.1148 118.97Z" fill="white"/>
<path d="M76.1148 130.455C76.1148 131.233 75.4842 131.863 74.7068 131.863C73.9282 131.863 73.2988 131.233 73.2988 130.455C73.2988 129.678 73.9282 129.047 74.7068 129.047C75.4842 129.047 76.1148 129.678 76.1148 130.455Z" fill="white"/>
<path d="M76.1148 141.94C76.1148 142.717 75.4842 143.348 74.7068 143.348C73.9282 143.348 73.2988 142.717 73.2988 141.94C73.2988 141.163 73.9282 140.532 74.7068 140.532C75.4842 140.532 76.1148 141.163 76.1148 141.94Z" fill="white"/>
<path d="M76.1148 153.425C76.1148 154.202 75.4842 154.833 74.7068 154.833C73.9282 154.833 73.2988 154.202 73.2988 153.425C73.2988 152.648 73.9282 152.017 74.7068 152.017C75.4842 152.017 76.1148 152.648 76.1148 153.425Z" fill="white"/>
<path d="M85.1383 107.485C85.1383 108.262 84.5076 108.893 83.7289 108.893C82.9516 108.893 82.3223 108.262 82.3223 107.485C82.3223 106.708 82.9516 106.077 83.7289 106.077C84.5076 106.077 85.1383 106.708 85.1383 107.485Z" fill="white"/>
<path d="M85.1383 118.97C85.1383 119.747 84.5076 120.378 83.7289 120.378C82.9516 120.378 82.3223 119.747 82.3223 118.97C82.3223 118.193 82.9516 117.562 83.7289 117.562C84.5076 117.562 85.1383 118.193 85.1383 118.97Z" fill="white"/>
<path d="M85.1383 130.455C85.1383 131.233 84.5076 131.863 83.7289 131.863C82.9516 131.863 82.3223 131.233 82.3223 130.455C82.3223 129.678 82.9516 129.047 83.7289 129.047C84.5076 129.047 85.1383 129.678 85.1383 130.455Z" fill="white"/>
<path d="M85.1383 141.94C85.1383 142.717 84.5076 143.348 83.7289 143.348C82.9516 143.348 82.3223 142.717 82.3223 141.94C82.3223 141.163 82.9516 140.532 83.7289 140.532C84.5076 140.532 85.1383 141.163 85.1383 141.94Z" fill="white"/>
<path d="M85.1383 153.425C85.1383 154.202 84.5076 154.833 83.7289 154.833C82.9516 154.833 82.3223 154.202 82.3223 153.425C82.3223 152.648 82.9516 152.017 83.7289 152.017C84.5076 152.017 85.1383 152.648 85.1383 153.425Z" fill="white"/>
<path d="M94.1617 107.485C94.1617 108.262 93.5297 108.893 92.7524 108.893C91.975 108.893 91.3457 108.262 91.3457 107.485C91.3457 106.708 91.975 106.077 92.7524 106.077C93.5297 106.077 94.1617 106.708 94.1617 107.485Z" fill="white"/>
<path d="M94.1617 118.97C94.1617 119.747 93.5297 120.378 92.7524 120.378C91.975 120.378 91.3457 119.747 91.3457 118.97C91.3457 118.193 91.975 117.562 92.7524 117.562C93.5297 117.562 94.1617 118.193 94.1617 118.97Z" fill="white"/>
<path d="M94.1617 130.455C94.1617 131.233 93.5297 131.863 92.7524 131.863C91.975 131.863 91.3457 131.233 91.3457 130.455C91.3457 129.678 91.975 129.047 92.7524 129.047C93.5297 129.047 94.1617 129.678 94.1617 130.455Z" fill="white"/>
<path d="M94.1617 141.94C94.1617 142.717 93.5297 143.348 92.7524 143.348C91.975 143.348 91.3457 142.717 91.3457 141.94C91.3457 141.163 91.975 140.532 92.7524 140.532C93.5297 140.532 94.1617 141.163 94.1617 141.94Z" fill="white"/>
<path d="M94.1617 153.425C94.1617 154.202 93.5297 154.833 92.7524 154.833C91.975 154.833 91.3457 154.202 91.3457 153.425C91.3457 152.648 91.975 152.017 92.7524 152.017C93.5297 152.017 94.1617 152.648 94.1617 153.425Z" fill="white"/>
<path d="M94.1617 164.91C94.1617 165.687 93.5297 166.318 92.7524 166.318C91.975 166.318 91.3457 165.687 91.3457 164.91C91.3457 164.133 91.975 163.502 92.7524 163.502C93.5297 163.502 94.1617 164.133 94.1617 164.91Z" fill="white"/>
<path d="M94.1617 176.395C94.1617 177.173 93.5297 177.803 92.7524 177.803C91.975 177.803 91.3457 177.173 91.3457 176.395C91.3457 175.618 91.975 174.987 92.7524 174.987C93.5297 174.987 94.1617 175.618 94.1617 176.395Z" fill="white"/>
</g>
<defs>
<linearGradient id="paint0_linear_623_27879" x1="382.095" y1="509.118" x2="444.095" y2="598.451" gradientUnits="userSpaceOnUse">
<stop stop-color="#FF0D4A"/>
<stop offset="0.0107527" stop-color="#FF0D4A"/>
<stop offset="0.281733" stop-color="#FF0D4A"/>
<stop offset="1" stop-color="#870222"/>
</linearGradient>
<clipPath id="clip0_623_27879">
<rect width="1000" height="666.667" fill="white"/>
</clipPath>
</defs>
</svg>
